<svg id="Layer_1" data-name="Layer 1" xmlns="http://www.w3.org/2000/svg" viewBox="0 0 81.5 79.68"><defs><style>.cls-1,.cls-3{fill:none;stroke:#21c8d1;stroke-miterlimit:10;}.cls-1{stroke-linecap:square;stroke-width:5px;}.cls-2{fill:#21c8d1;}.cls-3{stroke-width:2px;}.cls-4{fill:#fff;}</style></defs><title>design_icon</title><path class="cls-1" d="M6.5,73.75c0-9.5.75-36.25,35-36.75s34-11.5,33.75-30.5"/><rect class="cls-2" x="71" y="0.27" width="7.92" height="7.92" rx="2" ry="2"/><rect class="cls-2" x="2.58" y="71.75" width="7.92" height="7.92" rx="2" ry="2"/><line class="cls-3" x1="73.71" y1="64.32" x2="8.25" y2="11.25"/><circle class="cls-2" cx="74.63" cy="65.13" r="3.13"/><circle class="cls-2" cx="7.38" cy="10.38" r="3.13"/><rect class="cls-4" x="36.08" y="32.25" width="10.92" height="10.92" rx="3.5" ry="3.5"/><path class="cls-2" d="M43.5,33.75a2,2,0,0,1,2,2v3.92a2,2,0,0,1-2,2H39.58a2,2,0,0,1-2-2V35.75a2,2,0,0,1,2-2H43.5m0-3H39.58a5,5,0,0,0-5,5v3.92a5,5,0,0,0,5,5H43.5a5,5,0,0,0,5-5V35.75a5,5,0,0,0-5-5Z"/></svg>