<svg id="Layer_1" data-name="Layer 1" xmlns="http://www.w3.org/2000/svg" viewBox="0 0 60.86 59.5"><defs><style>.cls-1{fill:#21c8d1;}</style></defs><title>Illustrator</title><path class="cls-1" d="M21.77,35.93l-2.66,8H15.7l8.69-25.59h4L37.11,44H33.58l-2.73-8Zm8.39-2.58L27.66,26c-.57-1.67-.95-3.19-1.33-4.67h-.08c-.38,1.52-.8,3.08-1.29,4.63l-2.51,7.4Z"/><path class="cls-1" d="M44.37,20.44a2.07,2.07,0,0,1-4.14,0,2,2,0,0,1,2.09-2.09A2,2,0,0,1,44.37,20.44ZM40.65,44V25.6H44V44Z"/><path class="cls-1" d="M59.53,58.5H2V1H59.53ZM5.79,54.7H55.73V4.76H5.79Z"/></svg>