<svg id="Layer_1" data-name="Layer 1" xmlns="http://www.w3.org/2000/svg" viewBox="0 0 61.89 60.5"><defs><style>.cls-1{fill:#21c8d1;}</style></defs><title>JQuery</title><path class="cls-1" d="M1,24.75c.19-1.07.34-2.15.58-3.21a19.78,19.78,0,0,1,3.85-8.16C6.55,12,7.66,10.57,8.78,9.14c-.48,1.31-1,2.56-1.4,3.87a25.29,25.29,0,0,0,1.1,17.08C12.7,40.25,20.28,46.87,30.77,50a29.4,29.4,0,0,0,21-1.26,20.57,20.57,0,0,0,7.38-5.6,2.09,2.09,0,0,1,.54-.5c-.17.37-.31.76-.5,1.12C54.74,52,47.92,56.9,38.63,58.28a34.22,34.22,0,0,1-12.15-.41,28.57,28.57,0,0,1-8.71-3.57A33.78,33.78,0,0,1,2.37,35.44a27.4,27.4,0,0,1-1.26-6.08A2.09,2.09,0,0,0,1,29Q1,26.87,1,24.75Z"/><path class="cls-1" d="M24.17,3.92c-.11.24-.24.47-.34.71A17.89,17.89,0,0,0,24,20C27.8,28.16,34.28,33,43.16,34.4a18.55,18.55,0,0,0,17.93-6.76c0,.13-.07.26-.11.38s-.1.26-.16.38a18.74,18.74,0,0,1-14.25,11,25.05,25.05,0,0,1-9.64-.06,22.22,22.22,0,0,1-9-4.23,23.09,23.09,0,0,1-8.77-12.44,17.35,17.35,0,0,1,1.2-13.4c1-1.91,2.4-3.66,3.61-5.48Z"/><path class="cls-1" d="M59.34,16.7a12.68,12.68,0,0,1-3.92,4.65,12.61,12.61,0,0,1-8.52,2A15.37,15.37,0,0,1,33.78,12.45a11.24,11.24,0,0,1,1.8-10L36.65,1a28.09,28.09,0,0,0-.82,3.17A12.28,12.28,0,0,0,38,12.86,15.64,15.64,0,0,0,51,20.1,9.7,9.7,0,0,0,58,18C58.44,17.61,58.85,17.17,59.34,16.7Z"/></svg>