<svg id="Layer_1" data-name="Layer 1" xmlns="http://www.w3.org/2000/svg" viewBox="0 0 67 59.5"><defs><style>.cls-1{fill:#21c8d1;}</style></defs><title>SquareSpace</title><path class="cls-1" d="M53.92,18.84a11.06,11.06,0,0,1,10,6.87c2,4.5,1.4,8.88-2,12.45-5.31,5.6-10.85,11-16.31,16.42a2.15,2.15,0,0,1-3.15.16,2.2,2.2,0,0,1,.2-3.24q7.83-7.85,15.67-15.68a7.12,7.12,0,0,0,2-7.46,6.94,6.94,0,0,0-5.54-5.08,7.19,7.19,0,0,0-6.86,2.23q-9.33,9.36-18.69,18.7c-.4.4-.79.82-1.23,1.18a2.12,2.12,0,0,1-2.87-.11A2.15,2.15,0,0,1,25,42.41a8.26,8.26,0,0,1,.67-.7l19-19A12.1,12.1,0,0,1,53.92,18.84Z"/><path class="cls-1" d="M14.59,42C8.67,42,4.4,39.31,2.68,35.05.81,30.4,1.47,26,5,22.42c5.24-5.43,10.65-10.71,16-16a2.2,2.2,0,0,1,3.24-.27c.92.9.82,2.23-.28,3.32C18.68,14.69,13.4,19.93,8.18,25.21a6.94,6.94,0,0,0-1.77,7.62,7,7,0,0,0,6.14,4.85,7.2,7.2,0,0,0,6.14-2.34q9.42-9.45,18.86-18.88c.29-.29.56-.59.87-.86a2.13,2.13,0,1,1,3,3c-1,1.09-2.11,2.13-3.18,3.2Q30,30.08,21.74,38.36C19.42,40.68,16.67,42,14.59,42Z"/><path class="cls-1" d="M26.63,55.35a11.46,11.46,0,0,1-7.78-3c-1.17-1-1.35-2.36-.49-3.32s2.09-.94,3.33.11A7.24,7.24,0,0,0,32,48.75q9.58-9.55,19.13-19.14c1.5-1.5,2.75-1.7,3.76-.63s.74,2.2-.72,3.66L35,51.77A11.45,11.45,0,0,1,26.63,55.35Z"/><path class="cls-1" d="M40,5.5a11.55,11.55,0,0,1,7.73,3c1.17,1.05,1.36,2.35.53,3.31s-2.14.94-3.33-.08a7.23,7.23,0,0,0-10.3.39Q25,21.7,15.42,31.32l-.43.43a2.18,2.18,0,0,1-3.24.16c-.88-.9-.79-2.15.27-3.23.74-.76,1.49-1.5,2.24-2.24L31.74,8.94A11.37,11.37,0,0,1,40,5.5Z"/></svg>