<svg id="Layer_1" data-name="Layer 1" xmlns="http://www.w3.org/2000/svg" viewBox="0 0 60.86 59.5"><defs><style>.cls-1{fill:#21c8d1;}</style></defs><title>inDesign</title><path class="cls-1" d="M20.48,18.33V44H17.17V18.33Z"/><path class="cls-1" d="M42,17V39.2c0,1.64,0,3.5.15,4.75h-3L39,40.76H39a6.8,6.8,0,0,1-6.27,3.61c-4.45,0-7.87-3.76-7.87-9.35,0-6.12,3.76-9.88,8.25-9.88A6.15,6.15,0,0,1,38.62,28h.08V17ZM38.7,33a5.94,5.94,0,0,0-.15-1.41,4.92,4.92,0,0,0-4.83-3.88c-3.46,0-5.51,3-5.51,7.11,0,3.73,1.82,6.8,5.44,6.8a5,5,0,0,0,4.9-4,5.86,5.86,0,0,0,.15-1.44Z"/><path class="cls-1" d="M58.36,58.5H.75V.89H58.36ZM4.55,54.7h50v-50h-50Z"/></svg>