<svg id="Layer_1" data-name="Layer 1" xmlns="http://www.w3.org/2000/svg" viewBox="0 0 60.86 59.5"><defs><style>.cls-1{fill:#21c8d1;}</style></defs><title>Jekyll</title><path class="cls-1" d="M51.63,8.27A18.59,18.59,0,0,1,56,15l.24.65-.63.29-3.09,1.44L48.31,21.6l-.12.12-.09.1L14.89,55c-3.64,3.64-7.62,1.59-9.21,0l-.86-.86c-3.64-3.64-1.59-7.62,0-9.21L38,11.74l4-4L43.65,4l.28-.64.66.23a20.6,20.6,0,0,1,7,4.63M52.7,7.2a22,22,0,0,0-7.61-5L44.44,2l-1.32-.46-.57,1.28-.28.64-.55,1.23-1,2.24L37,10.67,3.75,43.87c-2.28,2.28-4.16,7.19,0,11.35l.86.86c2.28,2.28,7.19,4.16,11.35,0l33.2-33.2.1-.1.09-.09h0l4-4,1-.49,1.8-.84.63-.29,1.26-.59-.48-1.31-.24-.65A20.08,20.08,0,0,0,52.7,7.2Z"/><path class="cls-1" d="M48.5,11.08c2,2,4.07,3.21,4.6,2.68s-.67-2.59-2.68-4.6-4.07-3.21-4.6-2.68.67,2.59,2.68,4.6"/><path class="cls-1" d="M18.19,46.53a.76.76,0,1,1,0-1.07.76.76,0,0,1,0,1.07m9.75-10.6a.91.91,0,1,1,0-1.29.91.91,0,0,1,0,1.29m-6.53,2.68a1.67,1.67,0,1,1,0-2.36,1.67,1.67,0,0,1,0,2.36m4.41-7.8a.62.62,0,1,1,0-.86.61.61,0,0,1,0,.86m-9.44,7.7a.91.91,0,1,1,0,1.29.91.91,0,0,1,0-1.29M13.8,53.06,40.94,25.93c-6.58,3.42-8.5,2.07-10.64,1.64a12.06,12.06,0,0,0-6.44.87L6.52,45.78s-3.43,3.43,0,6.85l.43.43s3.43,3.43,6.85,0"/></svg>