<svg id="Layer_1" data-name="Layer 1" xmlns="http://www.w3.org/2000/svg" viewBox="0 0 60.86 59.5"><defs><style>.cls-1{fill:#21c8d1;}</style></defs><title>Photoshop</title><path class="cls-1" d="M15.94,18.23a38.77,38.77,0,0,1,6.41-.5c3.3,0,5.72.77,7.26,2.15a7,7,0,0,1,2.27,5.42,7.62,7.62,0,0,1-2,5.53c-1.77,1.88-4.65,2.84-7.91,2.84a11.46,11.46,0,0,1-2.69-.23V43.81H15.94Zm3.34,12.48A11.27,11.27,0,0,0,22,31c4,0,6.49-2,6.49-5.53,0-3.42-2.42-5.07-6.11-5.07a14,14,0,0,0-3.15.27Z"/><path class="cls-1" d="M35,40.35a8.84,8.84,0,0,0,4.45,1.34c2.46,0,3.61-1.23,3.61-2.77s-1-2.5-3.46-3.42c-3.34-1.19-4.92-3-4.92-5.26,0-3,2.42-5.45,6.41-5.45a9.3,9.3,0,0,1,4.57,1.15l-.84,2.46A7.23,7.23,0,0,0,41,27.33c-2,0-3.11,1.15-3.11,2.53,0,1.54,1.11,2.23,3.53,3.15,3.23,1.23,4.88,2.84,4.88,5.61,0,3.26-2.53,5.57-7,5.57a10.59,10.59,0,0,1-5.22-1.27Z"/><path class="cls-1" d="M59.53,58.5H1.33V.29H59.53ZM5.17,54.66H55.69V4.14H5.17Z"/></svg>