<svg id="Layer_1" data-name="Layer 1" xmlns="http://www.w3.org/2000/svg" xmlns:xlink="http://www.w3.org/1999/xlink" viewBox="0 0 134 131"><defs><style>.cls-1,.cls-4{fill:none;}.cls-2{clip-path:url(#clip-path);}.cls-3{fill:#231f20;}.cls-4{stroke:#231f20;}</style><clipPath id="clip-path"><rect class="cls-1" x="1.27" y="0.2" width="129.8" height="129.8"/></clipPath></defs><title>st5k_logo</title><g class="cls-2"><path class="cls-3" d="M100.74,82.16l3.82,8.8h1.23V79.52h-1.23v8.8l-3.82-8.8H99.51V91h1.23ZM88,86.21v2.2a1.66,1.66,0,0,1-.64,1.16,2,2,0,0,1-1.39.6,1.23,1.23,0,0,1-1-.37,1.68,1.68,0,0,1-.28-1v-7q0-1.41,1.67-1.41T88,81.72v1h1.23v-1a2.28,2.28,0,0,0-.74-1.82,3.24,3.24,0,0,0-2.18-.64,3.18,3.18,0,0,0-2.16.64,2.31,2.31,0,0,0-.72,1.82v7q0,2.46,2.55,2.46a2.39,2.39,0,0,0,1.3-.38,2.91,2.91,0,0,0,1-1L88.69,91h.53V85.15H86v1.06ZM72.76,89.9V80.57h.88V79.52h-3v1.06h.88V89.9h-.88V91h3V89.9Zm-12-2.46a3.47,3.47,0,0,0-.7-1.08l-3.15-3a1.92,1.92,0,0,1-.55-.74,3,3,0,0,1-.12-1,1.2,1.2,0,0,1,.41-1,2.36,2.36,0,0,1,2.48,0,1.23,1.23,0,0,1,.41,1v1.57h1.23v-1.5q0-2.46-2.83-2.46a3.27,3.27,0,0,0-2.21.64A2.3,2.3,0,0,0,55,81.72a3.64,3.64,0,0,0,.2,1.31A3.18,3.18,0,0,0,56,84.09l3.1,3a2.22,2.22,0,0,1,.54.77,2.89,2.89,0,0,1,.13,1,1.16,1.16,0,0,1-.44,1,2.59,2.59,0,0,1-2.6,0,1.19,1.19,0,0,1-.44-1V87.26H55v1.5q0,2.46,3,2.46t3-2.46a3.8,3.8,0,0,0-.19-1.31M45.69,89.9h-4V85.68h3.08V84.62H41.73v-4h3.78V79.52h-5V91h5.19Zm-17.13-.41a1.56,1.56,0,0,1-1.15.41H25.8V80.57h1.6a1.54,1.54,0,0,1,1.15.42A1.36,1.36,0,0,1,29,82v6.51a1.35,1.35,0,0,1-.41,1m.94.83a2.34,2.34,0,0,0,.7-1.82V82a2.33,2.33,0,0,0-.71-1.81,3,3,0,0,0-2.09-.65H24.57V91H27.4a3,3,0,0,0,2.09-.64"/><path class="cls-3" d="M100.79,58l.87-1.4,4.07,8h2l-5-9.77,4.67-7.39h-2.06l-4.59,7.29V47.4H98.94V64.56h1.85ZM87.49,40.62a2.91,2.91,0,0,0,0-1.64q-1.06.24-11.46.24-.24,0-1.57,3.7t-2.63,7.52L70.52,54.2c.19.45.42.68.68.68a4.48,4.48,0,0,0,.68-.17,14.43,14.43,0,0,1,1.64-.34,14.73,14.73,0,0,1,2.32-.17A3.51,3.51,0,0,1,79,56.14a7.11,7.11,0,0,1,.51,5.08,11.26,11.26,0,0,1-2,4.5,4.5,4.5,0,0,1-3.8,2,3.85,3.85,0,0,1-2.54-1.35A3.78,3.78,0,0,0,68.92,65a2.39,2.39,0,0,0-1.6.63,2.13,2.13,0,0,0-.72,1.69,4.34,4.34,0,0,0,.15,1.35q1.55,1.55,4.88,1.55A14.66,14.66,0,0,0,81,67a13.58,13.58,0,0,0,5.12-8.27,7,7,0,0,0-1.84-6.36,7.94,7.94,0,0,0-6-2.68,15.33,15.33,0,0,0-3.72.48l1.89-5.37q.15-.44,1.09-.53t4.66,0h4.11a9.33,9.33,0,0,0,1.21-3.58m-42,6.78V49h3.43V64.56h1.85V49h3.43V47.4ZM33.56,59.29a5.19,5.19,0,0,0-1.06-1.62l-4.73-4.54A2.89,2.89,0,0,1,27,52a4.55,4.55,0,0,1-.18-1.45,1.81,1.81,0,0,1,.62-1.45,2.81,2.81,0,0,1,1.86-.53,2.81,2.81,0,0,1,1.86.53,1.84,1.84,0,0,1,.62,1.48v2.35h1.85V50.7q0-3.7-4.25-3.7A4.9,4.9,0,0,0,26,48a3.45,3.45,0,0,0-1.1,2.73,5.47,5.47,0,0,0,.3,2,4.8,4.8,0,0,0,1.12,1.6L31,58.8A3.31,3.31,0,0,1,31.8,60,4.34,4.34,0,0,1,32,61.4a1.74,1.74,0,0,1-.66,1.44,3.08,3.08,0,0,1-2,.53,3.08,3.08,0,0,1-2-.53,1.79,1.79,0,0,1-.66-1.48V59H24.92v2.24q0,3.7,4.46,3.7t4.46-3.7a5.69,5.69,0,0,0-.29-2"/><rect class="cls-4" x="1.82" y="0.75" width="128.7" height="128.7"/></g></svg>